<svg width="393" height="594" viewBox="0 0 393 594" fill="none" xmlns="http://www.w3.org/2000/svg">
<g filter="url(#filter0_d_123_1589)">
<rect x="66" y="246" width="260" height="94" rx="6" fill="white" shape-rendering="crispEdges"/>
<rect x="89" y="266" width="26" height="26" rx="4" fill="#091931"/>
<g clip-path="url(#clip0_123_1589)">
<path d="M107.097 273.509H106.134V273.006C106.134 272.744 105.916 272.525 105.653 272.525C105.391 272.525 105.172 272.744 105.172 273.006V273.509H98.85V273.006C98.85 272.744 98.6312 272.525 98.3687 272.525C98.1062 272.525 97.8875 272.744 97.8875 273.006V273.509H96.9031C96.0719 273.509 95.3937 274.188 95.3937 275.019V281.1C95.3937 281.931 96.0719 282.609 96.9031 282.609H101.65C101.912 282.609 102.131 282.391 102.131 282.128C102.131 281.866 101.912 281.647 101.65 281.647H96.9031C96.6187 281.647 96.3781 281.406 96.3781 281.122V277.294H107.644V279.591C107.644 279.853 107.862 280.072 108.125 280.072C108.387 280.072 108.606 279.853 108.606 279.591V274.997C108.606 274.188 107.928 273.509 107.097 273.509ZM96.3562 276.309V274.997C96.3562 274.713 96.5969 274.472 96.8812 274.472H97.8437V274.691C97.8437 274.953 98.0625 275.172 98.325 275.172C98.5875 275.172 98.8062 274.953 98.8062 274.691V274.472H105.106V274.691C105.106 274.953 105.325 275.172 105.587 275.172C105.85 275.172 106.069 274.953 106.069 274.691V274.472H107.031C107.316 274.472 107.556 274.713 107.556 274.997V276.309H96.3562Z" fill="#FFC947"/>
<path d="M105.566 279.897C104.012 279.897 102.766 281.144 102.766 282.697C102.766 284.25 104.012 285.497 105.566 285.497C107.119 285.497 108.366 284.25 108.366 282.697C108.366 281.144 107.097 279.897 105.566 279.897ZM105.566 284.512C104.559 284.512 103.75 283.703 103.75 282.697C103.75 281.691 104.559 280.881 105.566 280.881C106.572 280.881 107.381 281.691 107.381 282.697C107.381 283.703 106.572 284.512 105.566 284.512Z" fill="#FFC947"/>
<path d="M106.244 282.194H104.888C104.625 282.194 104.406 282.412 104.406 282.675C104.406 282.937 104.625 283.156 104.888 283.156H106.244C106.506 283.156 106.725 282.937 106.725 282.675C106.725 282.412 106.506 282.194 106.244 282.194Z" fill="#FFC947"/>
</g>
<path d="M128.474 286.5V272.178H132.522C133.901 272.178 135.103 272.427 136.13 272.926C137.171 273.41 137.985 274.173 138.572 275.214C139.159 276.255 139.452 277.612 139.452 279.284C139.452 280.941 139.159 282.305 138.572 283.376C138 284.447 137.208 285.239 136.196 285.752C135.184 286.251 134.025 286.5 132.72 286.5H128.474ZM131.994 283.684H132.324C133.013 283.684 133.622 283.552 134.15 283.288C134.678 283.009 135.089 282.555 135.382 281.924C135.69 281.293 135.844 280.413 135.844 279.284C135.844 278.155 135.69 277.282 135.382 276.666C135.089 276.05 134.678 275.617 134.15 275.368C133.622 275.119 133.013 274.994 132.324 274.994H131.994V283.684ZM145.391 286.764C144.643 286.764 144.005 286.61 143.477 286.302C142.949 285.994 142.539 285.591 142.245 285.092C141.967 284.593 141.827 284.036 141.827 283.42C141.827 282.203 142.363 281.271 143.433 280.626C144.519 279.966 146.337 279.563 148.889 279.416C148.845 279.123 148.735 278.881 148.559 278.69C148.383 278.485 148.134 278.331 147.811 278.228C147.503 278.111 147.122 278.052 146.667 278.052C146.345 278.052 146.007 278.096 145.655 278.184C145.318 278.257 144.966 278.367 144.599 278.514C144.247 278.661 143.859 278.837 143.433 279.042L142.179 276.732C142.722 276.439 143.272 276.182 143.829 275.962C144.387 275.742 144.959 275.573 145.545 275.456C146.132 275.339 146.733 275.28 147.349 275.28C148.391 275.28 149.285 275.463 150.033 275.83C150.781 276.182 151.361 276.732 151.771 277.48C152.182 278.213 152.387 279.159 152.387 280.318V286.5H149.527L149.285 285.312H149.197C148.655 285.723 148.061 286.067 147.415 286.346C146.77 286.625 146.095 286.764 145.391 286.764ZM146.513 284.058C146.983 284.058 147.408 283.97 147.789 283.794C148.185 283.603 148.552 283.376 148.889 283.112V281.528C147.907 281.557 147.144 281.653 146.601 281.814C146.059 281.961 145.685 282.151 145.479 282.386C145.274 282.606 145.171 282.855 145.171 283.134C145.171 283.339 145.223 283.515 145.325 283.662C145.443 283.794 145.597 283.897 145.787 283.97C145.993 284.029 146.235 284.058 146.513 284.058ZM162.617 286.764C161.443 286.764 160.505 286.566 159.801 286.17C159.097 285.759 158.583 285.187 158.261 284.454C157.953 283.721 157.799 282.87 157.799 281.902V278.294H155.115V275.676L157.953 275.544L158.415 272.222H161.319V275.544H165.785V278.294H161.319V281.858C161.319 282.386 161.399 282.811 161.561 283.134C161.722 283.457 161.964 283.684 162.287 283.816C162.609 283.948 163.02 284.014 163.519 284.014C163.915 284.014 164.281 283.985 164.619 283.926C164.971 283.853 165.301 283.757 165.609 283.64L166.225 286.192C165.741 286.324 165.198 286.449 164.597 286.566C164.01 286.698 163.35 286.764 162.617 286.764ZM172.494 286.764C171.746 286.764 171.108 286.61 170.58 286.302C170.052 285.994 169.642 285.591 169.348 285.092C169.07 284.593 168.93 284.036 168.93 283.42C168.93 282.203 169.466 281.271 170.536 280.626C171.622 279.966 173.44 279.563 175.992 279.416C175.948 279.123 175.838 278.881 175.662 278.69C175.486 278.485 175.237 278.331 174.914 278.228C174.606 278.111 174.225 278.052 173.77 278.052C173.448 278.052 173.11 278.096 172.758 278.184C172.421 278.257 172.069 278.367 171.702 278.514C171.35 278.661 170.962 278.837 170.536 279.042L169.282 276.732C169.825 276.439 170.375 276.182 170.932 275.962C171.49 275.742 172.062 275.573 172.648 275.456C173.235 275.339 173.836 275.28 174.452 275.28C175.494 275.28 176.388 275.463 177.136 275.83C177.884 276.182 178.464 276.732 178.874 277.48C179.285 278.213 179.49 279.159 179.49 280.318V286.5H176.63L176.388 285.312H176.3C175.758 285.723 175.164 286.067 174.518 286.346C173.873 286.625 173.198 286.764 172.494 286.764ZM173.616 284.058C174.086 284.058 174.511 283.97 174.892 283.794C175.288 283.603 175.655 283.376 175.992 283.112V281.528C175.01 281.557 174.247 281.653 173.704 281.814C173.162 281.961 172.788 282.151 172.582 282.386C172.377 282.606 172.274 282.855 172.274 283.134C172.274 283.339 172.326 283.515 172.428 283.662C172.546 283.794 172.7 283.897 172.89 283.97C173.096 284.029 173.338 284.058 173.616 284.058ZM174.694 273.916C173.858 273.916 173.162 273.769 172.604 273.476C172.047 273.168 171.629 272.75 171.35 272.222C171.086 271.694 170.94 271.093 170.91 270.418L172.89 270.088C172.934 270.396 173.03 270.675 173.176 270.924C173.323 271.173 173.521 271.371 173.77 271.518C174.02 271.665 174.328 271.738 174.694 271.738C175.061 271.738 175.369 271.665 175.618 271.518C175.882 271.371 176.08 271.173 176.212 270.924C176.359 270.675 176.454 270.396 176.498 270.088L178.478 270.418C178.449 271.093 178.295 271.694 178.016 272.222C177.752 272.75 177.342 273.168 176.784 273.476C176.242 273.769 175.545 273.916 174.694 273.916ZM199.839 286.764C198.812 286.764 197.954 286.573 197.265 286.192C196.576 285.811 196.055 285.305 195.703 284.674C195.366 284.043 195.197 283.369 195.197 282.65C195.197 281.887 195.336 281.242 195.615 280.714C195.894 280.186 196.253 279.731 196.693 279.35C197.148 278.954 197.617 278.602 198.101 278.294C198.6 277.986 199.069 277.685 199.509 277.392C199.949 277.084 200.308 276.761 200.587 276.424C200.88 276.087 201.027 275.691 201.027 275.236C201.027 274.913 200.961 274.664 200.829 274.488C200.712 274.312 200.499 274.224 200.191 274.224C199.956 274.224 199.758 274.356 199.597 274.62C199.45 274.869 199.377 275.236 199.377 275.72C199.377 276.277 199.538 276.864 199.861 277.48C200.198 278.096 200.638 278.719 201.181 279.35C201.738 279.981 202.347 280.582 203.007 281.154C203.682 281.711 204.364 282.203 205.053 282.628C205.537 282.965 205.999 283.251 206.439 283.486C206.894 283.706 207.312 283.86 207.693 283.948L206.879 286.764C206.219 286.603 205.566 286.368 204.921 286.06C204.276 285.737 203.623 285.327 202.963 284.828C202.098 284.241 201.269 283.567 200.477 282.804C199.7 282.027 199.01 281.22 198.409 280.384C197.822 279.533 197.353 278.705 197.001 277.898C196.664 277.091 196.495 276.365 196.495 275.72C196.495 275.045 196.642 274.422 196.935 273.85C197.228 273.263 197.646 272.794 198.189 272.442C198.732 272.09 199.37 271.914 200.103 271.914C201.218 271.914 202.09 272.215 202.721 272.816C203.366 273.417 203.689 274.224 203.689 275.236C203.689 275.823 203.564 276.351 203.315 276.82C203.066 277.275 202.743 277.693 202.347 278.074C201.951 278.455 201.533 278.815 201.093 279.152C200.653 279.489 200.235 279.827 199.839 280.164C199.443 280.487 199.12 280.839 198.871 281.22C198.622 281.587 198.497 281.997 198.497 282.452C198.497 282.775 198.57 283.061 198.717 283.31C198.864 283.559 199.069 283.757 199.333 283.904C199.612 284.036 199.927 284.102 200.279 284.102C200.675 284.102 201.064 283.977 201.445 283.728C201.841 283.464 202.23 283.119 202.611 282.694C203.051 282.151 203.432 281.521 203.755 280.802C204.078 280.069 204.334 279.247 204.525 278.338H207.715C207.451 279.409 207.092 280.443 206.637 281.44C206.197 282.423 205.654 283.361 205.009 284.256C204.393 285.004 203.652 285.613 202.787 286.082C201.936 286.537 200.954 286.764 199.839 286.764ZM223.334 286.5V272.178H227.382C228.761 272.178 229.963 272.427 230.99 272.926C232.031 273.41 232.845 274.173 233.432 275.214C234.019 276.255 234.312 277.612 234.312 279.284C234.312 280.941 234.019 282.305 233.432 283.376C232.86 284.447 232.068 285.239 231.056 285.752C230.044 286.251 228.885 286.5 227.58 286.5H223.334ZM226.854 283.684H227.184C227.873 283.684 228.482 283.552 229.01 283.288C229.538 283.009 229.949 282.555 230.242 281.924C230.55 281.293 230.704 280.413 230.704 279.284C230.704 278.155 230.55 277.282 230.242 276.666C229.949 276.05 229.538 275.617 229.01 275.368C228.482 275.119 227.873 274.994 227.184 274.994H226.854V283.684ZM240.207 286.764C238.975 286.764 238.081 286.361 237.523 285.554C236.981 284.747 236.709 283.662 236.709 282.298V275.544H240.207V281.858C240.207 282.518 240.303 283.002 240.493 283.31C240.699 283.618 241.08 283.772 241.637 283.772C242.004 283.772 242.327 283.699 242.605 283.552C242.899 283.405 243.207 283.112 243.529 282.672V275.544H247.027V286.5H244.167L243.925 284.982H243.837C243.368 285.525 242.84 285.957 242.253 286.28C241.681 286.603 240.999 286.764 240.207 286.764ZM251.383 286.5V275.544H254.265L254.529 277.898H254.617C255.145 277.003 255.79 276.343 256.553 275.918C257.315 275.493 258.122 275.28 258.973 275.28C259.471 275.28 259.867 275.324 260.161 275.412C260.454 275.485 260.755 275.588 261.063 275.72L260.359 278.668C260.036 278.551 259.735 278.47 259.457 278.426C259.178 278.367 258.841 278.338 258.445 278.338C257.785 278.338 257.139 278.536 256.509 278.932C255.878 279.313 255.335 279.981 254.881 280.934V286.5H251.383ZM267.354 286.764C266.606 286.764 265.968 286.61 265.44 286.302C264.912 285.994 264.501 285.591 264.208 285.092C263.929 284.593 263.79 284.036 263.79 283.42C263.79 282.203 264.325 281.271 265.396 280.626C266.481 279.966 268.3 279.563 270.852 279.416C270.808 279.123 270.698 278.881 270.522 278.69C270.346 278.485 270.097 278.331 269.774 278.228C269.466 278.111 269.085 278.052 268.63 278.052C268.307 278.052 267.97 278.096 267.618 278.184C267.281 278.257 266.929 278.367 266.562 278.514C266.21 278.661 265.821 278.837 265.396 279.042L264.142 276.732C264.685 276.439 265.235 276.182 265.792 275.962C266.349 275.742 266.921 275.573 267.508 275.456C268.095 275.339 268.696 275.28 269.312 275.28C270.353 275.28 271.248 275.463 271.996 275.83C272.744 276.182 273.323 276.732 273.734 277.48C274.145 278.213 274.35 279.159 274.35 280.318V286.5H271.49L271.248 285.312H271.16C270.617 285.723 270.023 286.067 269.378 286.346C268.733 286.625 268.058 286.764 267.354 286.764ZM268.476 284.058C268.945 284.058 269.371 283.97 269.752 283.794C270.148 283.603 270.515 283.376 270.852 283.112V281.528C269.869 281.557 269.107 281.653 268.564 281.814C268.021 281.961 267.647 282.151 267.442 282.386C267.237 282.606 267.134 282.855 267.134 283.134C267.134 283.339 267.185 283.515 267.288 283.662C267.405 283.794 267.559 283.897 267.75 283.97C267.955 284.029 268.197 284.058 268.476 284.058ZM284.579 286.764C283.406 286.764 282.467 286.566 281.763 286.17C281.059 285.759 280.546 285.187 280.223 284.454C279.915 283.721 279.761 282.87 279.761 281.902V278.294H277.077V275.676L279.915 275.544L280.377 272.222H283.281V275.544H287.747V278.294H283.281V281.858C283.281 282.386 283.362 282.811 283.523 283.134C283.685 283.457 283.927 283.684 284.249 283.816C284.572 283.948 284.983 284.014 285.481 284.014C285.877 284.014 286.244 283.985 286.581 283.926C286.933 283.853 287.263 283.757 287.571 283.64L288.187 286.192C287.703 286.324 287.161 286.449 286.559 286.566C285.973 286.698 285.313 286.764 284.579 286.764ZM294.457 286.764C293.709 286.764 293.071 286.61 292.543 286.302C292.015 285.994 291.604 285.591 291.311 285.092C291.032 284.593 290.893 284.036 290.893 283.42C290.893 282.203 291.428 281.271 292.499 280.626C293.584 279.966 295.403 279.563 297.955 279.416C297.911 279.123 297.801 278.881 297.625 278.69C297.449 278.485 297.2 278.331 296.877 278.228C296.569 278.111 296.188 278.052 295.733 278.052C295.41 278.052 295.073 278.096 294.721 278.184C294.384 278.257 294.032 278.367 293.665 278.514C293.313 278.661 292.924 278.837 292.499 279.042L291.245 276.732C291.788 276.439 292.338 276.182 292.895 275.962C293.452 275.742 294.024 275.573 294.611 275.456C295.198 275.339 295.799 275.28 296.415 275.28C297.456 275.28 298.351 275.463 299.099 275.83C299.847 276.182 300.426 276.732 300.837 277.48C301.248 278.213 301.453 279.159 301.453 280.318V286.5H298.593L298.351 285.312H298.263C297.72 285.723 297.126 286.067 296.481 286.346C295.836 286.625 295.161 286.764 294.457 286.764ZM295.579 284.058C296.048 284.058 296.474 283.97 296.855 283.794C297.251 283.603 297.618 283.376 297.955 283.112V281.528C296.972 281.557 296.21 281.653 295.667 281.814C295.124 281.961 294.75 282.151 294.545 282.386C294.34 282.606 294.237 282.855 294.237 283.134C294.237 283.339 294.288 283.515 294.391 283.662C294.508 283.794 294.662 283.897 294.853 283.97C295.058 284.029 295.3 284.058 295.579 284.058ZM296.657 273.916C295.821 273.916 295.124 273.769 294.567 273.476C294.01 273.168 293.592 272.75 293.313 272.222C293.049 271.694 292.902 271.093 292.873 270.418L294.853 270.088C294.897 270.396 294.992 270.675 295.139 270.924C295.286 271.173 295.484 271.371 295.733 271.518C295.982 271.665 296.29 271.738 296.657 271.738C297.024 271.738 297.332 271.665 297.581 271.518C297.845 271.371 298.043 271.173 298.175 270.924C298.322 270.675 298.417 270.396 298.461 270.088L300.441 270.418C300.412 271.093 300.258 271.694 299.979 272.222C299.715 272.75 299.304 273.168 298.747 273.476C298.204 273.769 297.508 273.916 296.657 273.916Z" fill="#091931"/>
<path d="M106.66 318V316.908C107.364 316.324 107.984 315.788 108.52 315.3C109.064 314.812 109.488 314.364 109.792 313.956C110.096 313.548 110.248 313.168 110.248 312.816C110.248 312.456 110.14 312.188 109.924 312.012C109.716 311.828 109.428 311.736 109.06 311.736C108.772 311.736 108.508 311.812 108.268 311.964C108.028 312.116 107.8 312.288 107.584 312.48L106.564 311.46C106.972 311.044 107.384 310.736 107.8 310.536C108.224 310.336 108.732 310.236 109.324 310.236C109.868 310.236 110.344 310.34 110.752 310.548C111.16 310.748 111.48 311.036 111.712 311.412C111.944 311.78 112.06 312.212 112.06 312.708C112.06 313.124 111.932 313.548 111.676 313.98C111.42 314.412 111.088 314.84 110.68 315.264C110.28 315.688 109.852 316.096 109.396 316.488C109.612 316.464 109.848 316.444 110.104 316.428C110.36 316.404 110.584 316.392 110.776 316.392H112.444V318H106.66ZM117.359 318.144C116.967 318.144 116.587 318.076 116.219 317.94C115.851 317.796 115.515 317.572 115.211 317.268C114.915 316.956 114.679 316.56 114.503 316.08C114.327 315.6 114.239 315.024 114.239 314.352C114.239 313.648 114.331 313.04 114.515 312.528C114.699 312.008 114.943 311.58 115.247 311.244C115.559 310.908 115.911 310.656 116.303 310.488C116.703 310.32 117.115 310.236 117.539 310.236C118.091 310.236 118.575 310.332 118.991 310.524C119.415 310.708 119.759 310.928 120.023 311.184L119.015 312.324C118.863 312.18 118.667 312.056 118.427 311.952C118.195 311.84 117.955 311.784 117.707 311.784C117.403 311.784 117.119 311.864 116.855 312.024C116.599 312.184 116.387 312.452 116.219 312.828C116.059 313.196 115.979 313.704 115.979 314.352C115.979 314.976 116.047 315.46 116.183 315.804C116.319 316.148 116.491 316.388 116.699 316.524C116.907 316.652 117.111 316.716 117.311 316.716C117.503 316.716 117.679 316.68 117.839 316.608C117.999 316.528 118.131 316.404 118.235 316.236C118.339 316.068 118.391 315.848 118.391 315.576C118.391 315.208 118.291 314.948 118.091 314.796C117.899 314.636 117.655 314.556 117.359 314.556C117.143 314.556 116.919 314.616 116.687 314.736C116.455 314.848 116.227 315.048 116.003 315.336L115.907 314.112C116.179 313.824 116.487 313.604 116.831 313.452C117.183 313.292 117.495 313.212 117.767 313.212C118.207 313.212 118.603 313.296 118.955 313.464C119.315 313.632 119.599 313.892 119.807 314.244C120.023 314.588 120.131 315.032 120.131 315.576C120.131 316.112 120.003 316.572 119.747 316.956C119.491 317.34 119.151 317.636 118.727 317.844C118.311 318.044 117.855 318.144 117.359 318.144ZM121.915 314.712V313.368H127.507V314.712H121.915ZM129.326 318V316.908C130.03 316.324 130.65 315.788 131.186 315.3C131.73 314.812 132.154 314.364 132.458 313.956C132.762 313.548 132.914 313.168 132.914 312.816C132.914 312.456 132.806 312.188 132.59 312.012C132.382 311.828 132.094 311.736 131.726 311.736C131.438 311.736 131.174 311.812 130.934 311.964C130.694 312.116 130.466 312.288 130.25 312.48L129.23 311.46C129.638 311.044 130.05 310.736 130.466 310.536C130.89 310.336 131.398 310.236 131.99 310.236C132.534 310.236 133.01 310.34 133.418 310.548C133.826 310.748 134.146 311.036 134.378 311.412C134.61 311.78 134.726 312.212 134.726 312.708C134.726 313.124 134.598 313.548 134.342 313.98C134.086 314.412 133.754 314.84 133.346 315.264C132.946 315.688 132.518 316.096 132.062 316.488C132.278 316.464 132.514 316.444 132.77 316.428C133.026 316.404 133.25 316.392 133.442 316.392H135.11V318H129.326ZM138.453 318C138.493 317.384 138.557 316.816 138.645 316.296C138.733 315.776 138.857 315.284 139.017 314.82C139.185 314.348 139.401 313.884 139.665 313.428C139.937 312.964 140.269 312.484 140.661 311.988H136.941V310.38H142.713V311.568C142.233 312.088 141.845 312.58 141.549 313.044C141.261 313.508 141.037 313.98 140.877 314.46C140.725 314.932 140.613 315.456 140.541 316.032C140.469 316.6 140.413 317.256 140.373 318H138.453ZM151.38 318L153.78 310.188H156.084L158.484 318H156.456L155.508 314.124C155.42 313.74 155.32 313.328 155.208 312.888C155.104 312.448 155.004 312.028 154.908 311.628H154.86C154.78 312.028 154.688 312.448 154.584 312.888C154.488 313.328 154.392 313.74 154.296 314.124L153.348 318H151.38ZM153.036 316.236V314.76H156.804V316.236H153.036ZM159.703 320.16V312.024H161.263L161.395 312.6H161.443C161.683 312.384 161.951 312.212 162.247 312.084C162.551 311.948 162.859 311.88 163.171 311.88C163.667 311.88 164.091 312.008 164.443 312.264C164.795 312.512 165.067 312.864 165.259 313.32C165.459 313.768 165.559 314.3 165.559 314.916C165.559 315.604 165.435 316.188 165.187 316.668C164.939 317.148 164.619 317.516 164.227 317.772C163.843 318.02 163.427 318.144 162.979 318.144C162.723 318.144 162.475 318.092 162.235 317.988C161.995 317.876 161.775 317.72 161.575 317.52H161.527L161.623 318.456V320.16H159.703ZM162.535 316.584C162.727 316.584 162.903 316.532 163.063 316.428C163.223 316.316 163.351 316.14 163.447 315.9C163.543 315.66 163.591 315.34 163.591 314.94C163.591 314.596 163.555 314.316 163.483 314.1C163.411 313.876 163.303 313.712 163.159 313.608C163.015 313.496 162.827 313.44 162.595 313.44C162.427 313.44 162.263 313.48 162.103 313.56C161.943 313.632 161.783 313.756 161.623 313.932V316.236C161.767 316.364 161.919 316.456 162.079 316.512C162.239 316.56 162.391 316.584 162.535 316.584ZM167.763 318V312.024H169.335L169.479 313.308H169.527C169.815 312.82 170.167 312.46 170.583 312.228C170.999 311.996 171.439 311.88 171.903 311.88C172.175 311.88 172.391 311.904 172.551 311.952C172.711 311.992 172.875 312.048 173.043 312.12L172.659 313.728C172.483 313.664 172.319 313.62 172.167 313.596C172.015 313.564 171.831 313.548 171.615 313.548C171.255 313.548 170.903 313.656 170.559 313.872C170.215 314.08 169.919 314.444 169.671 314.964V318H167.763ZM177.25 318V313.524H174.91V312.024H179.17V318H177.25ZM178.138 311.148C177.778 311.148 177.478 311.044 177.238 310.836C177.006 310.628 176.89 310.352 176.89 310.008C176.89 309.664 177.006 309.388 177.238 309.18C177.478 308.964 177.778 308.856 178.138 308.856C178.498 308.856 178.794 308.964 179.026 309.18C179.266 309.388 179.386 309.664 179.386 310.008C179.386 310.352 179.266 310.628 179.026 310.836C178.794 311.044 178.498 311.148 178.138 311.148ZM186.269 318.144C185.493 318.144 184.909 317.912 184.517 317.448C184.125 316.976 183.929 316.36 183.929 315.6V311.112H182.105V309.624H185.837V315.672C185.837 316.024 185.937 316.268 186.137 316.404C186.337 316.54 186.549 316.608 186.773 316.608C186.909 316.608 187.045 316.592 187.181 316.56C187.325 316.528 187.489 316.48 187.673 316.416L188.093 317.832C187.781 317.928 187.493 318.004 187.229 318.06C186.973 318.116 186.653 318.144 186.269 318.144ZM192.36 318V313.524H190.02V312.024H194.28V318H192.36ZM193.248 311.148C192.888 311.148 192.588 311.044 192.348 310.836C192.116 310.628 192 310.352 192 310.008C192 309.664 192.116 309.388 192.348 309.18C192.588 308.964 192.888 308.856 193.248 308.856C193.608 308.856 193.904 308.964 194.136 309.18C194.376 309.388 194.496 309.664 194.496 310.008C194.496 310.352 194.376 310.628 194.136 310.836C193.904 311.044 193.608 311.148 193.248 311.148ZM200.624 318.144C200 318.144 199.436 318.02 198.932 317.772C198.428 317.524 198.028 317.168 197.732 316.704C197.444 316.24 197.3 315.676 197.3 315.012C197.3 314.356 197.448 313.796 197.744 313.332C198.04 312.868 198.424 312.512 198.896 312.264C199.376 312.008 199.884 311.88 200.42 311.88C201.036 311.88 201.552 312.008 201.968 312.264C202.392 312.52 202.708 312.868 202.916 313.308C203.132 313.74 203.24 314.224 203.24 314.76C203.24 314.928 203.232 315.092 203.216 315.252C203.2 315.404 203.184 315.516 203.168 315.588H198.728V314.328H201.848L201.572 314.676C201.572 314.236 201.48 313.904 201.296 313.68C201.112 313.448 200.84 313.332 200.48 313.332C200.2 313.332 199.96 313.392 199.76 313.512C199.568 313.632 199.416 313.82 199.304 314.076C199.2 314.324 199.148 314.636 199.148 315.012C199.148 315.404 199.212 315.724 199.34 315.972C199.476 316.22 199.672 316.404 199.928 316.524C200.192 316.636 200.512 316.692 200.888 316.692C201.144 316.692 201.388 316.66 201.62 316.596C201.86 316.532 202.112 316.436 202.376 316.308L203 317.448C202.656 317.664 202.272 317.836 201.848 317.964C201.424 318.084 201.016 318.144 200.624 318.144ZM212.434 318V316.908C213.138 316.324 213.758 315.788 214.294 315.3C214.838 314.812 215.262 314.364 215.566 313.956C215.87 313.548 216.022 313.168 216.022 312.816C216.022 312.456 215.914 312.188 215.698 312.012C215.49 311.828 215.202 311.736 214.834 311.736C214.546 311.736 214.282 311.812 214.042 311.964C213.802 312.116 213.574 312.288 213.358 312.48L212.338 311.46C212.746 311.044 213.158 310.736 213.574 310.536C213.998 310.336 214.506 310.236 215.098 310.236C215.642 310.236 216.118 310.34 216.526 310.548C216.934 310.748 217.254 311.036 217.486 311.412C217.718 311.78 217.834 312.212 217.834 312.708C217.834 313.124 217.706 313.548 217.45 313.98C217.194 314.412 216.862 314.84 216.454 315.264C216.054 315.688 215.626 316.096 215.17 316.488C215.386 316.464 215.622 316.444 215.878 316.428C216.134 316.404 216.358 316.392 216.55 316.392H218.218V318H212.434ZM222.93 318.144C222.338 318.144 221.818 317.992 221.37 317.688C220.93 317.384 220.586 316.936 220.338 316.344C220.09 315.752 219.966 315.024 219.966 314.16C219.966 312.856 220.238 311.876 220.782 311.22C221.326 310.564 222.042 310.236 222.93 310.236C223.818 310.236 224.534 310.564 225.078 311.22C225.622 311.876 225.894 312.856 225.894 314.16C225.894 315.024 225.77 315.752 225.522 316.344C225.274 316.936 224.926 317.384 224.478 317.688C224.038 317.992 223.522 318.144 222.93 318.144ZM222.93 316.668C223.162 316.668 223.374 316.596 223.566 316.452C223.758 316.3 223.91 316.044 224.022 315.684C224.142 315.316 224.202 314.808 224.202 314.16C224.202 313.512 224.142 313.012 224.022 312.66C223.91 312.308 223.758 312.064 223.566 311.928C223.374 311.784 223.162 311.712 222.93 311.712C222.698 311.712 222.486 311.784 222.294 311.928C222.102 312.064 221.946 312.308 221.826 312.66C221.714 313.012 221.658 313.512 221.658 314.16C221.658 314.808 221.714 315.316 221.826 315.684C221.946 316.044 222.102 316.3 222.294 316.452C222.486 316.596 222.698 316.668 222.93 316.668ZM222.93 315.084C222.666 315.084 222.442 315 222.258 314.832C222.082 314.656 221.994 314.428 221.994 314.148C221.994 313.868 222.082 313.644 222.258 313.476C222.442 313.3 222.666 313.212 222.93 313.212C223.202 313.212 223.426 313.3 223.602 313.476C223.778 313.644 223.866 313.868 223.866 314.148C223.866 314.428 223.778 314.656 223.602 314.832C223.426 315 223.202 315.084 222.93 315.084ZM227.545 318V316.908C228.249 316.324 228.869 315.788 229.405 315.3C229.949 314.812 230.373 314.364 230.677 313.956C230.981 313.548 231.133 313.168 231.133 312.816C231.133 312.456 231.025 312.188 230.809 312.012C230.601 311.828 230.313 311.736 229.945 311.736C229.657 311.736 229.393 311.812 229.153 311.964C228.913 312.116 228.685 312.288 228.469 312.48L227.449 311.46C227.857 311.044 228.269 310.736 228.685 310.536C229.109 310.336 229.617 310.236 230.209 310.236C230.753 310.236 231.229 310.34 231.637 310.548C232.045 310.748 232.365 311.036 232.597 311.412C232.829 311.78 232.945 312.212 232.945 312.708C232.945 313.124 232.817 313.548 232.561 313.98C232.305 314.412 231.973 314.84 231.565 315.264C231.165 315.688 230.737 316.096 230.281 316.488C230.497 316.464 230.733 316.444 230.989 316.428C231.245 316.404 231.469 316.392 231.661 316.392H233.329V318H227.545ZM237.836 318.144C237.396 318.144 237 318.096 236.648 318C236.296 317.912 235.98 317.788 235.7 317.628C235.428 317.46 235.184 317.272 234.968 317.064L235.82 315.864C235.988 316 236.16 316.124 236.336 316.236C236.52 316.348 236.712 316.44 236.912 316.512C237.12 316.576 237.332 316.608 237.548 316.608C237.828 316.608 238.072 316.568 238.28 316.488C238.488 316.4 238.648 316.276 238.76 316.116C238.872 315.956 238.928 315.756 238.928 315.516C238.928 315.156 238.804 314.888 238.556 314.712C238.316 314.528 238.008 314.436 237.632 314.436C237.4 314.436 237.2 314.464 237.032 314.52C236.872 314.568 236.664 314.664 236.408 314.808L235.568 314.268L235.772 310.38H240.512V311.988H237.416L237.308 313.26C237.476 313.204 237.628 313.168 237.764 313.152C237.908 313.128 238.064 313.116 238.232 313.116C238.696 313.116 239.124 313.2 239.516 313.368C239.916 313.536 240.236 313.796 240.476 314.148C240.724 314.492 240.848 314.932 240.848 315.468C240.848 316.036 240.708 316.52 240.428 316.92C240.148 317.312 239.776 317.616 239.312 317.832C238.856 318.04 238.364 318.144 237.836 318.144Z" fill="#091931"/>
<rect x="252" y="308" width="1" height="12" fill="#091931"/>
<path d="M263.78 318V317.196C264.58 316.508 265.264 315.896 265.832 315.36C266.408 314.824 266.848 314.336 267.152 313.896C267.464 313.448 267.62 313.028 267.62 312.636C267.62 312.228 267.496 311.908 267.248 311.676C267 311.436 266.636 311.316 266.156 311.316C265.828 311.316 265.524 311.4 265.244 311.568C264.964 311.736 264.708 311.936 264.476 312.168L263.72 311.4C264.088 311.024 264.476 310.736 264.884 310.536C265.292 310.328 265.776 310.224 266.336 310.224C266.864 310.224 267.32 310.32 267.704 310.512C268.096 310.704 268.4 310.976 268.616 311.328C268.832 311.68 268.94 312.092 268.94 312.564C268.94 313.012 268.8 313.472 268.52 313.944C268.24 314.408 267.86 314.884 267.38 315.372C266.908 315.86 266.376 316.372 265.784 316.908C266.008 316.884 266.244 316.864 266.492 316.848C266.74 316.832 266.968 316.824 267.176 316.824H269.336V318H263.78ZM274.803 318V313.14C274.811 312.916 274.823 312.664 274.839 312.384C274.855 312.104 274.867 311.852 274.875 311.628H274.815C274.687 311.828 274.551 312.028 274.407 312.228C274.271 312.428 274.139 312.632 274.011 312.84L272.403 314.964H277.179V316.032H270.999V315.096L274.503 310.356H276.099V318H274.803ZM279.095 318V309.528H280.487V311.712L280.403 312.972H280.439C280.695 312.7 280.991 312.464 281.327 312.264C281.671 312.064 282.067 311.964 282.515 311.964C283.195 311.964 283.695 312.172 284.015 312.588C284.335 313.004 284.495 313.592 284.495 314.352V318H283.103V314.532C283.103 314.06 283.019 313.712 282.851 313.488C282.683 313.264 282.399 313.152 281.999 313.152C281.711 313.152 281.455 313.22 281.231 313.356C281.007 313.492 280.759 313.7 280.487 313.98V318H279.095Z" fill="#091931"/>
</g>
<defs>
<filter id="filter0_d_123_1589" x="-184" y="0" width="760" height="594" filterUnits="userSpaceOnUse" color-interpolation-filters="sRGB">
<feFlood flood-opacity="0" result="BackgroundImageFix"/>
<feColorMatrix in="SourceAlpha" type="matrix" values="0 0 0 0 0 0 0 0 0 0 0 0 0 0 0 0 0 0 127 0" result="hardAlpha"/>
<feOffset dy="4"/>
<feGaussianBlur stdDeviation="125"/>
<feComposite in2="hardAlpha" operator="out"/>
<feColorMatrix type="matrix" values="0 0 0 0 1 0 0 0 0 1 0 0 0 0 1 0 0 0 0.37 0"/>
<feBlend mode="normal" in2="BackgroundImageFix" result="effect1_dropShadow_123_1589"/>
<feBlend mode="normal" in="SourceGraphic" in2="effect1_dropShadow_123_1589" result="shape"/>
</filter>
<clipPath id="clip0_123_1589">
<rect width="14" height="14" fill="white" transform="translate(95 272)"/>
</clipPath>
</defs>
</svg>
