<svg width="393" height="589" viewBox="0 0 393 589" fill="none" xmlns="http://www.w3.org/2000/svg">
<rect x="43" y="246.117" width="7" height="88" rx="3.5" fill="#FFC947"/>
<g filter="url(#filter0_d_33746_1303)">
<rect x="58" y="246.117" width="277" height="88" rx="6" fill="white" shape-rendering="crispEdges"/>
<rect x="84" y="272.117" width="36" height="36" rx="6" fill="#091931"/>
<g clip-path="url(#clip0_33746_1303)">
<path d="M109.425 289.029C109.425 287.154 108.713 285.429 107.55 284.117V281.154C107.55 279.842 106.5 278.792 105.188 278.792H98.8125C97.5 278.792 96.45 279.842 96.45 281.154V284.117C95.2875 285.429 94.575 287.154 94.575 289.029C94.575 290.904 95.2875 292.629 96.45 293.942V300.279C96.45 300.692 96.675 301.067 97.0125 301.292C97.2 301.404 97.3875 301.442 97.6125 301.442C97.8 301.442 97.9875 301.404 98.1375 301.292L101.925 299.342C101.963 299.304 102 299.304 102.038 299.342L105.825 301.292C106.2 301.479 106.613 301.479 106.95 301.254C107.288 301.029 107.513 300.654 107.513 300.242V293.942C108.713 292.629 109.425 290.904 109.425 289.029ZM98.8125 280.479H105.15C105.525 280.479 105.825 280.779 105.825 281.154V282.692C104.7 282.017 103.388 281.604 101.963 281.604C100.538 281.604 99.225 282.017 98.1 282.692V281.154C98.1375 280.779 98.4375 280.479 98.8125 280.479ZM102 283.292C105.15 283.292 107.738 285.879 107.738 289.029C107.738 292.179 105.15 294.767 102 294.767C98.85 294.767 96.2625 292.179 96.2625 289.029C96.2625 285.879 98.85 283.292 102 283.292ZM102.788 297.879C102.263 297.617 101.7 297.617 101.175 297.879L98.1375 299.454V295.367C99.2625 296.042 100.575 296.454 102 296.454C103.425 296.454 104.738 296.042 105.863 295.367V299.417L102.788 297.879Z" fill="#FFC947"/>
<path d="M102 292.479C103.913 292.479 105.45 290.942 105.45 289.029C105.45 287.117 103.913 285.579 102 285.579C100.088 285.579 98.55 287.117 98.55 289.029C98.55 290.942 100.088 292.479 102 292.479ZM102 287.267C102.975 287.267 103.763 288.054 103.763 289.029C103.763 290.004 102.975 290.792 102 290.792C101.025 290.792 100.238 290.004 100.238 289.029C100.238 288.054 101.025 287.267 102 287.267Z" fill="#FFC947"/>
</g>
<path d="M141.14 282.117V274.257H143.624C144.2 274.257 144.708 274.333 145.148 274.485C145.596 274.629 145.944 274.877 146.192 275.229C146.44 275.573 146.564 276.037 146.564 276.621C146.564 277.189 146.436 277.657 146.18 278.025C145.932 278.393 145.584 278.669 145.136 278.853C144.696 279.029 144.192 279.117 143.624 279.117H142.34V282.117H141.14ZM142.34 278.145H143.504C144.144 278.145 144.616 278.021 144.92 277.773C145.224 277.525 145.376 277.141 145.376 276.621C145.376 276.093 145.22 275.729 144.908 275.529C144.596 275.321 144.128 275.217 143.504 275.217H142.34V278.145ZM149.211 282.117V276.249H150.195L150.291 277.617H150.327C150.631 277.137 151.003 276.765 151.443 276.501C151.883 276.237 152.363 276.105 152.883 276.105C153.107 276.105 153.311 276.125 153.495 276.165C153.679 276.205 153.859 276.265 154.035 276.345L153.771 277.365C153.571 277.293 153.399 277.245 153.255 277.221C153.111 277.189 152.927 277.173 152.703 277.173C152.279 277.173 151.871 277.293 151.479 277.533C151.087 277.773 150.727 278.189 150.399 278.781V282.117H149.211ZM159.071 282.261C158.479 282.261 157.939 282.141 157.451 281.901C156.971 281.661 156.591 281.309 156.311 280.845C156.031 280.381 155.891 279.825 155.891 279.177C155.891 278.537 156.031 277.989 156.311 277.533C156.599 277.077 156.971 276.725 157.427 276.477C157.883 276.229 158.371 276.105 158.891 276.105C159.467 276.105 159.955 276.225 160.355 276.465C160.755 276.697 161.059 277.021 161.267 277.437C161.483 277.845 161.591 278.325 161.591 278.877C161.591 278.997 161.587 279.117 161.579 279.237C161.571 279.349 161.559 279.445 161.543 279.525H156.719V278.649H160.799L160.535 278.937C160.535 278.305 160.391 277.833 160.103 277.521C159.815 277.201 159.423 277.041 158.927 277.041C158.583 277.041 158.267 277.125 157.979 277.293C157.699 277.453 157.475 277.693 157.307 278.013C157.139 278.325 157.055 278.713 157.055 279.177C157.055 279.657 157.147 280.057 157.331 280.377C157.523 280.689 157.779 280.925 158.099 281.085C158.427 281.245 158.803 281.325 159.227 281.325C159.555 281.325 159.855 281.281 160.127 281.193C160.399 281.097 160.667 280.969 160.931 280.809L161.351 281.565C161.055 281.765 160.715 281.933 160.331 282.069C159.947 282.197 159.527 282.261 159.071 282.261ZM163.29 282.117V276.249H164.226L164.322 277.017H164.346C164.49 276.753 164.662 276.537 164.862 276.369C165.062 276.193 165.33 276.105 165.666 276.105C165.946 276.105 166.178 276.189 166.362 276.357C166.546 276.525 166.674 276.777 166.746 277.113C166.906 276.809 167.086 276.565 167.286 276.381C167.494 276.197 167.766 276.105 168.102 276.105C168.518 276.105 168.838 276.265 169.062 276.585C169.294 276.905 169.41 277.357 169.41 277.941V282.117H168.246V278.025C168.246 277.425 168.066 277.125 167.706 277.125C167.53 277.125 167.382 277.193 167.262 277.329C167.142 277.465 167.01 277.669 166.866 277.941V282.117H165.834V278.025C165.834 277.729 165.79 277.505 165.702 277.353C165.622 277.201 165.49 277.125 165.306 277.125C165.13 277.125 164.974 277.193 164.838 277.329C164.71 277.465 164.582 277.669 164.454 277.941V282.117H163.29ZM173.893 282.117V277.209H171.265V276.249H175.081V282.117H173.893ZM174.385 275.109C174.129 275.109 173.917 275.033 173.749 274.881C173.581 274.721 173.497 274.513 173.497 274.257C173.497 274.001 173.581 273.797 173.749 273.645C173.917 273.485 174.129 273.405 174.385 273.405C174.641 273.405 174.853 273.485 175.021 273.645C175.189 273.797 175.273 274.001 175.273 274.257C175.273 274.513 175.189 274.721 175.021 274.881C174.853 275.033 174.641 275.109 174.385 275.109ZM181.449 282.117V277.209H178.821V276.249H182.637V282.117H181.449ZM181.941 275.109C181.685 275.109 181.473 275.033 181.305 274.881C181.137 274.721 181.053 274.513 181.053 274.257C181.053 274.001 181.137 273.797 181.305 273.645C181.473 273.485 181.685 273.405 181.941 273.405C182.197 273.405 182.409 273.485 182.577 273.645C182.745 273.797 182.829 274.001 182.829 274.257C182.829 274.513 182.745 274.721 182.577 274.881C182.409 275.033 182.197 275.109 181.941 275.109ZM190.168 282.261C189.52 282.261 189.024 282.073 188.68 281.697C188.336 281.313 188.164 280.769 188.164 280.065V274.569H186.208V273.609H189.352V280.137C189.352 280.545 189.456 280.841 189.664 281.025C189.872 281.201 190.132 281.289 190.444 281.289C190.604 281.289 190.768 281.269 190.936 281.229C191.112 281.189 191.304 281.125 191.512 281.037L191.8 281.925C191.52 282.021 191.26 282.101 191.02 282.165C190.788 282.229 190.504 282.261 190.168 282.261ZM196.847 282.261C196.255 282.261 195.715 282.141 195.227 281.901C194.747 281.661 194.367 281.309 194.087 280.845C193.807 280.381 193.667 279.825 193.667 279.177C193.667 278.537 193.807 277.989 194.087 277.533C194.375 277.077 194.747 276.725 195.203 276.477C195.659 276.229 196.147 276.105 196.667 276.105C197.243 276.105 197.731 276.225 198.131 276.465C198.531 276.697 198.835 277.021 199.043 277.437C199.259 277.845 199.367 278.325 199.367 278.877C199.367 278.997 199.363 279.117 199.355 279.237C199.347 279.349 199.335 279.445 199.319 279.525H194.495V278.649H198.575L198.311 278.937C198.311 278.305 198.167 277.833 197.879 277.521C197.591 277.201 197.199 277.041 196.703 277.041C196.359 277.041 196.043 277.125 195.755 277.293C195.475 277.453 195.251 277.693 195.083 278.013C194.915 278.325 194.831 278.713 194.831 279.177C194.831 279.657 194.923 280.057 195.107 280.377C195.299 280.689 195.555 280.925 195.875 281.085C196.203 281.245 196.579 281.325 197.003 281.325C197.331 281.325 197.631 281.281 197.903 281.193C198.175 281.097 198.443 280.969 198.707 280.809L199.127 281.565C198.831 281.765 198.491 281.933 198.107 282.069C197.723 282.197 197.303 282.261 196.847 282.261ZM209.054 284.517V276.249H210.026L210.122 276.969H210.158C210.422 276.721 210.726 276.517 211.07 276.357C211.414 276.189 211.762 276.105 212.114 276.105C212.634 276.105 213.07 276.229 213.422 276.477C213.782 276.725 214.054 277.073 214.238 277.521C214.43 277.969 214.526 278.493 214.526 279.093C214.526 279.765 214.402 280.337 214.154 280.809C213.906 281.281 213.582 281.641 213.182 281.889C212.782 282.137 212.35 282.261 211.886 282.261C211.622 282.261 211.338 282.197 211.034 282.069C210.738 281.941 210.466 281.765 210.218 281.541H210.182L210.242 282.597V284.517H209.054ZM211.658 281.277C211.97 281.277 212.25 281.193 212.498 281.025C212.746 280.857 212.942 280.613 213.086 280.293C213.23 279.965 213.302 279.569 213.302 279.105C213.302 278.697 213.246 278.345 213.134 278.049C213.03 277.745 212.87 277.513 212.654 277.353C212.438 277.185 212.15 277.101 211.79 277.101C211.55 277.101 211.298 277.165 211.034 277.293C210.77 277.413 210.506 277.613 210.242 277.893V280.665C210.49 280.881 210.742 281.037 210.998 281.133C211.254 281.229 211.474 281.277 211.658 281.277ZM217.209 282.117V276.249H218.193L218.289 277.617H218.325C218.629 277.137 219.001 276.765 219.441 276.501C219.881 276.237 220.361 276.105 220.881 276.105C221.105 276.105 221.309 276.125 221.493 276.165C221.677 276.205 221.857 276.265 222.033 276.345L221.769 277.365C221.569 277.293 221.397 277.245 221.253 277.221C221.109 277.189 220.925 277.173 220.701 277.173C220.277 277.173 219.869 277.293 219.477 277.533C219.085 277.773 218.725 278.189 218.397 278.781V282.117H217.209ZM226.708 282.261C226.196 282.261 225.716 282.141 225.268 281.901C224.828 281.661 224.468 281.313 224.188 280.857C223.916 280.393 223.78 279.837 223.78 279.189C223.78 278.541 223.916 277.989 224.188 277.533C224.468 277.069 224.828 276.717 225.268 276.477C225.716 276.229 226.196 276.105 226.708 276.105C227.22 276.105 227.696 276.229 228.136 276.477C228.584 276.717 228.944 277.069 229.216 277.533C229.496 277.989 229.636 278.541 229.636 279.189C229.636 279.837 229.496 280.393 229.216 280.857C228.944 281.313 228.584 281.661 228.136 281.901C227.696 282.141 227.22 282.261 226.708 282.261ZM226.708 281.289C227.052 281.289 227.352 281.201 227.608 281.025C227.864 280.849 228.06 280.605 228.196 280.293C228.34 279.981 228.412 279.613 228.412 279.189C228.412 278.773 228.34 278.409 228.196 278.097C228.06 277.777 227.864 277.529 227.608 277.353C227.352 277.177 227.052 277.089 226.708 277.089C226.364 277.089 226.064 277.177 225.808 277.353C225.552 277.529 225.352 277.777 225.208 278.097C225.072 278.409 225.004 278.773 225.004 279.189C225.004 279.613 225.072 279.981 225.208 280.293C225.352 280.605 225.552 280.849 225.808 281.025C226.064 281.201 226.364 281.289 226.708 281.289ZM234.564 282.261C234.276 282.261 233.976 282.193 233.664 282.057C233.352 281.913 233.064 281.717 232.8 281.469H232.764L232.656 282.117H231.72V273.609H232.908V275.865L232.86 276.945H232.896C233.152 276.689 233.444 276.485 233.772 276.333C234.108 276.181 234.44 276.105 234.768 276.105C235.288 276.105 235.728 276.229 236.088 276.477C236.448 276.725 236.72 277.073 236.904 277.521C237.096 277.961 237.192 278.485 237.192 279.093C237.192 279.757 237.068 280.329 236.82 280.809C236.572 281.281 236.248 281.641 235.848 281.889C235.456 282.137 235.028 282.261 234.564 282.261ZM234.336 281.277C234.648 281.277 234.924 281.193 235.164 281.025C235.412 280.857 235.608 280.613 235.752 280.293C235.896 279.965 235.968 279.569 235.968 279.105C235.968 278.697 235.912 278.345 235.8 278.049C235.696 277.745 235.536 277.513 235.32 277.353C235.104 277.185 234.816 277.101 234.456 277.101C234.216 277.101 233.964 277.165 233.7 277.293C233.436 277.413 233.172 277.613 232.908 277.893V280.665C233.156 280.881 233.408 281.037 233.664 281.133C233.92 281.229 234.144 281.277 234.336 281.277ZM242.179 282.261C241.587 282.261 241.047 282.141 240.559 281.901C240.079 281.661 239.699 281.309 239.419 280.845C239.139 280.381 238.999 279.825 238.999 279.177C238.999 278.537 239.139 277.989 239.419 277.533C239.707 277.077 240.079 276.725 240.535 276.477C240.991 276.229 241.479 276.105 241.999 276.105C242.575 276.105 243.063 276.225 243.463 276.465C243.863 276.697 244.167 277.021 244.375 277.437C244.591 277.845 244.699 278.325 244.699 278.877C244.699 278.997 244.695 279.117 244.687 279.237C244.679 279.349 244.667 279.445 244.651 279.525H239.827V278.649H243.907L243.643 278.937C243.643 278.305 243.499 277.833 243.211 277.521C242.923 277.201 242.531 277.041 242.035 277.041C241.691 277.041 241.375 277.125 241.087 277.293C240.807 277.453 240.583 277.693 240.415 278.013C240.247 278.325 240.163 278.713 240.163 279.177C240.163 279.657 240.255 280.057 240.439 280.377C240.631 280.689 240.887 280.925 241.207 281.085C241.535 281.245 241.911 281.325 242.335 281.325C242.663 281.325 242.963 281.281 243.235 281.193C243.507 281.097 243.775 280.969 244.039 280.809L244.459 281.565C244.163 281.765 243.823 281.933 243.439 282.069C243.055 282.197 242.635 282.261 242.179 282.261ZM249.446 282.117V277.209H246.818V276.249H250.634V282.117H249.446ZM249.938 275.109C249.682 275.109 249.47 275.033 249.302 274.881C249.134 274.721 249.05 274.513 249.05 274.257C249.05 274.001 249.134 273.797 249.302 273.645C249.47 273.485 249.682 273.405 249.938 273.405C250.194 273.405 250.406 273.485 250.574 273.645C250.742 273.797 250.826 274.001 250.826 274.257C250.826 274.513 250.742 274.721 250.574 274.881C250.406 275.033 250.194 275.109 249.938 275.109ZM264.557 282.117V277.209H261.929V276.249H265.745V282.117H264.557ZM263.585 275.325L263.105 274.869L264.449 273.225H265.649L266.993 274.869L266.513 275.325L265.073 274.029H265.025L263.585 275.325ZM269.496 282.117V276.249H270.468L270.564 277.197H270.612C270.908 276.893 271.228 276.637 271.572 276.429C271.916 276.213 272.316 276.105 272.772 276.105C273.452 276.105 273.952 276.313 274.272 276.729C274.6 277.137 274.764 277.721 274.764 278.481V282.117H273.576V278.637C273.576 278.125 273.48 277.749 273.288 277.509C273.104 277.261 272.792 277.137 272.352 277.137C272.04 277.137 271.76 277.217 271.512 277.377C271.264 277.529 270.988 277.761 270.684 278.073V282.117H269.496ZM142.952 306.117L140.552 300.249H141.752L142.988 303.441C143.1 303.729 143.208 304.021 143.312 304.317C143.416 304.605 143.516 304.893 143.612 305.181H143.66C143.764 304.893 143.864 304.605 143.96 304.317C144.056 304.021 144.16 303.729 144.272 303.441L145.508 300.249H146.648L144.296 306.117H142.952ZM150.447 306.261C150.071 306.261 149.731 306.193 149.427 306.057C149.131 305.913 148.895 305.717 148.719 305.469C148.551 305.213 148.467 304.913 148.467 304.569C148.467 303.913 148.787 303.413 149.427 303.069C150.075 302.725 151.135 302.497 152.607 302.385C152.599 302.145 152.543 301.925 152.439 301.725C152.343 301.525 152.187 301.369 151.971 301.257C151.763 301.137 151.487 301.077 151.143 301.077C150.903 301.077 150.667 301.109 150.435 301.173C150.203 301.229 149.979 301.309 149.763 301.413C149.547 301.517 149.343 301.625 149.151 301.737L148.707 300.933C148.923 300.805 149.171 300.677 149.451 300.549C149.731 300.413 150.031 300.305 150.351 300.225C150.679 300.145 151.011 300.105 151.347 300.105C151.891 300.105 152.343 300.205 152.703 300.405C153.063 300.605 153.335 300.889 153.519 301.257C153.703 301.625 153.795 302.069 153.795 302.589V306.117H152.823L152.727 305.361H152.691C152.379 305.601 152.027 305.813 151.635 305.997C151.243 306.173 150.847 306.261 150.447 306.261ZM150.783 305.313C151.095 305.313 151.403 305.245 151.707 305.109C152.011 304.973 152.311 304.781 152.607 304.533V303.141C151.839 303.197 151.235 303.285 150.795 303.405C150.363 303.525 150.059 303.677 149.883 303.861C149.707 304.037 149.619 304.245 149.619 304.485C149.619 304.677 149.671 304.837 149.775 304.965C149.887 305.085 150.031 305.173 150.207 305.229C150.383 305.285 150.575 305.313 150.783 305.313ZM159.947 306.261C159.299 306.261 158.803 306.073 158.459 305.697C158.115 305.313 157.943 304.769 157.943 304.065V298.569H155.987V297.609H159.131V304.137C159.131 304.545 159.235 304.841 159.443 305.025C159.651 305.201 159.911 305.289 160.223 305.289C160.383 305.289 160.547 305.269 160.715 305.229C160.891 305.189 161.083 305.125 161.291 305.037L161.579 305.925C161.299 306.021 161.039 306.101 160.799 306.165C160.567 306.229 160.283 306.261 159.947 306.261ZM166.266 306.261C165.754 306.261 165.274 306.141 164.826 305.901C164.386 305.661 164.026 305.313 163.746 304.857C163.474 304.393 163.338 303.837 163.338 303.189C163.338 302.541 163.474 301.989 163.746 301.533C164.026 301.069 164.386 300.717 164.826 300.477C165.274 300.229 165.754 300.105 166.266 300.105C166.778 300.105 167.254 300.229 167.694 300.477C168.142 300.717 168.502 301.069 168.774 301.533C169.054 301.989 169.194 302.541 169.194 303.189C169.194 303.837 169.054 304.393 168.774 304.857C168.502 305.313 168.142 305.661 167.694 305.901C167.254 306.141 166.778 306.261 166.266 306.261ZM166.266 305.289C166.61 305.289 166.91 305.201 167.166 305.025C167.422 304.849 167.618 304.605 167.754 304.293C167.898 303.981 167.97 303.613 167.97 303.189C167.97 302.773 167.898 302.409 167.754 302.097C167.618 301.777 167.422 301.529 167.166 301.353C166.91 301.177 166.61 301.089 166.266 301.089C165.922 301.089 165.622 301.177 165.366 301.353C165.11 301.529 164.91 301.777 164.766 302.097C164.63 302.409 164.562 302.773 164.562 303.189C164.562 303.613 164.63 303.981 164.766 304.293C164.91 304.605 165.11 304.849 165.366 305.025C165.622 305.201 165.922 305.289 166.266 305.289ZM173.113 306.261C172.737 306.261 172.397 306.193 172.093 306.057C171.797 305.913 171.561 305.717 171.385 305.469C171.217 305.213 171.133 304.913 171.133 304.569C171.133 303.913 171.453 303.413 172.093 303.069C172.741 302.725 173.801 302.497 175.273 302.385C175.265 302.145 175.209 301.925 175.105 301.725C175.009 301.525 174.853 301.369 174.637 301.257C174.429 301.137 174.153 301.077 173.809 301.077C173.569 301.077 173.333 301.109 173.101 301.173C172.869 301.229 172.645 301.309 172.429 301.413C172.213 301.517 172.009 301.625 171.817 301.737L171.373 300.933C171.589 300.805 171.837 300.677 172.117 300.549C172.397 300.413 172.697 300.305 173.017 300.225C173.345 300.145 173.677 300.105 174.013 300.105C174.557 300.105 175.009 300.205 175.369 300.405C175.729 300.605 176.001 300.889 176.185 301.257C176.369 301.625 176.461 302.069 176.461 302.589V306.117H175.489L175.393 305.361H175.357C175.045 305.601 174.693 305.813 174.301 305.997C173.909 306.173 173.513 306.261 173.113 306.261ZM173.449 305.313C173.761 305.313 174.069 305.245 174.373 305.109C174.677 304.973 174.977 304.781 175.273 304.533V303.141C174.505 303.197 173.901 303.285 173.461 303.405C173.029 303.525 172.725 303.677 172.549 303.861C172.373 304.037 172.285 304.245 172.285 304.485C172.285 304.677 172.337 304.837 172.441 304.965C172.553 305.085 172.697 305.173 172.873 305.229C173.049 305.285 173.241 305.313 173.449 305.313ZM179.433 306.117V300.249H180.417L180.513 301.617H180.549C180.853 301.137 181.225 300.765 181.665 300.501C182.105 300.237 182.585 300.105 183.105 300.105C183.329 300.105 183.533 300.125 183.717 300.165C183.901 300.205 184.081 300.265 184.257 300.345L183.993 301.365C183.793 301.293 183.621 301.245 183.477 301.221C183.333 301.189 183.149 301.173 182.925 301.173C182.501 301.173 182.093 301.293 181.701 301.533C181.309 301.773 180.949 302.189 180.621 302.781V306.117H179.433ZM189.292 306.261C188.7 306.261 188.16 306.141 187.672 305.901C187.192 305.661 186.812 305.309 186.532 304.845C186.252 304.381 186.112 303.825 186.112 303.177C186.112 302.537 186.252 301.989 186.532 301.533C186.82 301.077 187.192 300.725 187.648 300.477C188.104 300.229 188.592 300.105 189.112 300.105C189.688 300.105 190.176 300.225 190.576 300.465C190.976 300.697 191.28 301.021 191.488 301.437C191.704 301.845 191.812 302.325 191.812 302.877C191.812 302.997 191.808 303.117 191.8 303.237C191.792 303.349 191.78 303.445 191.764 303.525H186.94V302.649H191.02L190.756 302.937C190.756 302.305 190.612 301.833 190.324 301.521C190.036 301.201 189.644 301.041 189.148 301.041C188.804 301.041 188.488 301.125 188.2 301.293C187.92 301.453 187.696 301.693 187.528 302.013C187.36 302.325 187.276 302.713 187.276 303.177C187.276 303.657 187.368 304.057 187.552 304.377C187.744 304.689 188 304.925 188.32 305.085C188.648 305.245 189.024 305.325 189.448 305.325C189.776 305.325 190.076 305.281 190.348 305.193C190.62 305.097 190.888 304.969 191.152 304.809L191.572 305.565C191.276 305.765 190.936 305.933 190.552 306.069C190.168 306.197 189.748 306.261 189.292 306.261ZM203.647 306.261C202.887 306.261 202.275 305.993 201.811 305.457C201.347 304.913 201.115 304.157 201.115 303.189C201.115 302.557 201.239 302.013 201.487 301.557C201.743 301.093 202.071 300.737 202.471 300.489C202.871 300.233 203.295 300.105 203.743 300.105C204.087 300.105 204.395 300.169 204.667 300.297C204.939 300.425 205.191 300.605 205.423 300.837H205.459L205.399 299.793V297.609H206.587V306.117H205.615L205.519 305.397H205.483C205.251 305.629 204.975 305.833 204.655 306.009C204.335 306.177 203.999 306.261 203.647 306.261ZM203.923 305.277C204.187 305.277 204.439 305.213 204.679 305.085C204.927 304.949 205.167 304.749 205.399 304.485V301.701C205.167 301.485 204.935 301.333 204.703 301.245C204.471 301.149 204.239 301.101 204.007 301.101C203.703 301.101 203.423 301.185 203.167 301.353C202.919 301.521 202.719 301.761 202.567 302.073C202.415 302.385 202.339 302.753 202.339 303.177C202.339 303.849 202.479 304.369 202.759 304.737C203.039 305.097 203.427 305.277 203.923 305.277ZM211.958 306.261C211.366 306.261 210.826 306.141 210.338 305.901C209.858 305.661 209.478 305.309 209.198 304.845C208.918 304.381 208.778 303.825 208.778 303.177C208.778 302.537 208.918 301.989 209.198 301.533C209.486 301.077 209.858 300.725 210.314 300.477C210.77 300.229 211.258 300.105 211.778 300.105C212.354 300.105 212.842 300.225 213.242 300.465C213.642 300.697 213.946 301.021 214.154 301.437C214.37 301.845 214.478 302.325 214.478 302.877C214.478 302.997 214.474 303.117 214.466 303.237C214.458 303.349 214.446 303.445 214.43 303.525H209.606V302.649H213.686L213.422 302.937C213.422 302.305 213.278 301.833 212.99 301.521C212.702 301.201 212.31 301.041 211.814 301.041C211.47 301.041 211.154 301.125 210.866 301.293C210.586 301.453 210.362 301.693 210.194 302.013C210.026 302.325 209.942 302.713 209.942 303.177C209.942 303.657 210.034 304.057 210.218 304.377C210.41 304.689 210.666 304.925 210.986 305.085C211.314 305.245 211.69 305.325 212.114 305.325C212.442 305.325 212.742 305.281 213.014 305.193C213.286 305.097 213.554 304.969 213.818 304.809L214.238 305.565C213.942 305.765 213.602 305.933 213.218 306.069C212.834 306.197 212.414 306.261 211.958 306.261ZM230.529 306.333C229.881 306.333 229.287 306.261 228.747 306.117C228.219 305.985 227.745 305.799 227.325 305.559C226.905 305.319 226.551 305.037 226.263 304.713L227.487 303.039C227.871 303.375 228.303 303.651 228.783 303.867C229.263 304.083 229.761 304.191 230.277 304.191C230.685 304.191 231.051 304.143 231.375 304.047C231.699 303.939 231.951 303.783 232.131 303.579C232.323 303.375 232.419 303.129 232.419 302.841C232.419 302.505 232.317 302.217 232.113 301.977C231.909 301.725 231.555 301.533 231.051 301.401C230.559 301.269 229.863 301.203 228.963 301.203V299.331C229.719 299.331 230.319 299.265 230.763 299.133C231.207 299.001 231.531 298.821 231.735 298.593C231.939 298.365 232.041 298.101 232.041 297.801C232.041 297.393 231.891 297.081 231.591 296.865C231.291 296.649 230.877 296.541 230.349 296.541C229.905 296.541 229.485 296.631 229.089 296.811C228.705 296.979 228.315 297.225 227.919 297.549L226.587 295.929C227.151 295.473 227.757 295.119 228.405 294.867C229.053 294.603 229.743 294.471 230.475 294.471C231.303 294.471 232.035 294.597 232.671 294.849C233.307 295.089 233.799 295.443 234.147 295.911C234.507 296.367 234.687 296.931 234.687 297.603C234.687 298.191 234.495 298.695 234.111 299.115C233.727 299.535 233.193 299.877 232.509 300.141V300.213C232.989 300.345 233.421 300.537 233.805 300.789C234.201 301.029 234.507 301.335 234.723 301.707C234.951 302.079 235.065 302.511 235.065 303.003C235.065 303.711 234.855 304.317 234.435 304.821C234.015 305.313 233.463 305.691 232.779 305.955C232.095 306.207 231.345 306.333 230.529 306.333ZM242.06 306.333C241.184 306.333 240.416 306.105 239.756 305.649C239.096 305.181 238.58 304.503 238.208 303.615C237.848 302.727 237.668 301.641 237.668 300.357C237.668 298.401 238.07 296.931 238.874 295.947C239.678 294.963 240.74 294.471 242.06 294.471C243.392 294.471 244.454 294.963 245.246 295.947C246.05 296.931 246.452 298.401 246.452 300.357C246.452 301.641 246.266 302.727 245.894 303.615C245.534 304.503 245.024 305.181 244.364 305.649C243.716 306.105 242.948 306.333 242.06 306.333ZM242.06 304.281C242.444 304.281 242.786 304.161 243.086 303.921C243.398 303.681 243.644 303.273 243.824 302.697C244.004 302.121 244.094 301.341 244.094 300.357C244.094 299.361 244.004 298.587 243.824 298.035C243.644 297.471 243.398 297.081 243.086 296.865C242.786 296.637 242.444 296.523 242.06 296.523C241.688 296.523 241.346 296.637 241.034 296.865C240.722 297.081 240.476 297.471 240.296 298.035C240.116 298.587 240.026 299.361 240.026 300.357C240.026 301.341 240.116 302.121 240.296 302.697C240.476 303.273 240.722 303.681 241.034 303.921C241.346 304.161 241.688 304.281 242.06 304.281ZM242.06 301.689C241.688 301.689 241.37 301.563 241.106 301.311C240.842 301.059 240.71 300.729 240.71 300.321C240.71 299.901 240.842 299.571 241.106 299.331C241.37 299.079 241.688 298.953 242.06 298.953C242.444 298.953 242.762 299.079 243.014 299.331C243.278 299.571 243.41 299.901 243.41 300.321C243.41 300.729 243.278 301.059 243.014 301.311C242.762 301.563 242.444 301.689 242.06 301.689ZM253.213 306.333C252.337 306.333 251.569 306.105 250.909 305.649C250.249 305.181 249.733 304.503 249.361 303.615C249.001 302.727 248.821 301.641 248.821 300.357C248.821 298.401 249.223 296.931 250.027 295.947C250.831 294.963 251.893 294.471 253.213 294.471C254.545 294.471 255.607 294.963 256.399 295.947C257.203 296.931 257.605 298.401 257.605 300.357C257.605 301.641 257.419 302.727 257.047 303.615C256.687 304.503 256.177 305.181 255.517 305.649C254.869 306.105 254.101 306.333 253.213 306.333ZM253.213 304.281C253.597 304.281 253.939 304.161 254.239 303.921C254.551 303.681 254.797 303.273 254.977 302.697C255.157 302.121 255.247 301.341 255.247 300.357C255.247 299.361 255.157 298.587 254.977 298.035C254.797 297.471 254.551 297.081 254.239 296.865C253.939 296.637 253.597 296.523 253.213 296.523C252.841 296.523 252.499 296.637 252.187 296.865C251.875 297.081 251.629 297.471 251.449 298.035C251.269 298.587 251.179 299.361 251.179 300.357C251.179 301.341 251.269 302.121 251.449 302.697C251.629 303.273 251.875 303.681 252.187 303.921C252.499 304.161 252.841 304.281 253.213 304.281ZM253.213 301.689C252.841 301.689 252.523 301.563 252.259 301.311C251.995 301.059 251.863 300.729 251.863 300.321C251.863 299.901 251.995 299.571 252.259 299.331C252.523 299.079 252.841 298.953 253.213 298.953C253.597 298.953 253.915 299.079 254.167 299.331C254.431 299.571 254.563 299.901 254.563 300.321C254.563 300.729 254.431 301.059 254.167 301.311C253.915 301.563 253.597 301.689 253.213 301.689ZM264.366 306.333C263.49 306.333 262.722 306.105 262.062 305.649C261.402 305.181 260.886 304.503 260.514 303.615C260.154 302.727 259.974 301.641 259.974 300.357C259.974 298.401 260.376 296.931 261.18 295.947C261.984 294.963 263.046 294.471 264.366 294.471C265.698 294.471 266.76 294.963 267.552 295.947C268.356 296.931 268.758 298.401 268.758 300.357C268.758 301.641 268.572 302.727 268.2 303.615C267.84 304.503 267.33 305.181 266.67 305.649C266.022 306.105 265.254 306.333 264.366 306.333ZM264.366 304.281C264.75 304.281 265.092 304.161 265.392 303.921C265.704 303.681 265.95 303.273 266.13 302.697C266.31 302.121 266.4 301.341 266.4 300.357C266.4 299.361 266.31 298.587 266.13 298.035C265.95 297.471 265.704 297.081 265.392 296.865C265.092 296.637 264.75 296.523 264.366 296.523C263.994 296.523 263.652 296.637 263.34 296.865C263.028 297.081 262.782 297.471 262.602 298.035C262.422 298.587 262.332 299.361 262.332 300.357C262.332 301.341 262.422 302.121 262.602 302.697C262.782 303.273 263.028 303.681 263.34 303.921C263.652 304.161 263.994 304.281 264.366 304.281ZM264.366 301.689C263.994 301.689 263.676 301.563 263.412 301.311C263.148 301.059 263.016 300.729 263.016 300.321C263.016 299.901 263.148 299.571 263.412 299.331C263.676 299.079 263.994 298.953 264.366 298.953C264.75 298.953 265.068 299.079 265.32 299.331C265.584 299.571 265.716 299.901 265.716 300.321C265.716 300.729 265.584 301.059 265.32 301.311C265.068 301.563 264.75 301.689 264.366 301.689ZM276.977 306.333C276.005 306.333 275.135 306.111 274.367 305.667C273.611 305.223 273.011 304.563 272.567 303.687C272.123 302.811 271.901 301.737 271.901 300.465C271.901 299.205 272.123 298.131 272.567 297.243C273.023 296.343 273.647 295.659 274.439 295.191C275.231 294.711 276.143 294.471 277.175 294.471C277.787 294.471 278.381 294.597 278.957 294.849C279.533 295.089 280.037 295.431 280.469 295.875L279.011 297.297C278.735 297.069 278.441 296.883 278.129 296.739C277.817 296.595 277.469 296.523 277.085 296.523C276.533 296.523 276.071 296.679 275.699 296.991C275.327 297.291 275.039 297.729 274.835 298.305C274.643 298.881 274.547 299.571 274.547 300.375C274.547 301.203 274.649 301.911 274.853 302.499C275.069 303.075 275.369 303.519 275.753 303.831C276.137 304.131 276.599 304.281 277.139 304.281C277.559 304.281 277.931 304.197 278.255 304.029C278.579 303.849 278.879 303.609 279.155 303.309L280.613 304.677C280.133 305.205 279.587 305.613 278.975 305.901C278.375 306.189 277.709 306.333 276.977 306.333ZM270.929 299.943V298.701L272.261 298.611H279.281V299.943H270.929ZM270.929 302.175V300.951L272.261 300.843H278.561V302.175H270.929Z" fill="#091931"/>
</g>
<rect x="343" y="246.117" width="7" height="88" rx="3.5" fill="#FFC947"/>
<defs>
<filter id="filter0_d_33746_1303" x="-192" y="0.116577" width="777" height="588" filterUnits="userSpaceOnUse" color-interpolation-filters="sRGB">
<feFlood flood-opacity="0" result="BackgroundImageFix"/>
<feColorMatrix in="SourceAlpha" type="matrix" values="0 0 0 0 0 0 0 0 0 0 0 0 0 0 0 0 0 0 127 0" result="hardAlpha"/>
<feOffset dy="4"/>
<feGaussianBlur stdDeviation="125"/>
<feComposite in2="hardAlpha" operator="out"/>
<feColorMatrix type="matrix" values="0 0 0 0 1 0 0 0 0 1 0 0 0 0 1 0 0 0 0.37 0"/>
<feBlend mode="normal" in2="BackgroundImageFix" result="effect1_dropShadow_33746_1303"/>
<feBlend mode="normal" in="SourceGraphic" in2="effect1_dropShadow_33746_1303" result="shape"/>
</filter>
<clipPath id="clip0_33746_1303">
<rect width="24" height="24" fill="white" transform="translate(90 278.117)"/>
</clipPath>
</defs>
</svg>
